<?xml version="1.0" encoding="UTF-8"?>
<svg width="46px" height="46px" viewBox="0 0 46 46" version="1.1" xmlns="http://www.w3.org/2000/svg" xmlns:xlink="http://www.w3.org/1999/xlink">
    <title>矩形</title>
    <defs>
        <linearGradient x1="74.4339933%" y1="10.8538594%" x2="19.1576668%" y2="106.414674%" id="linearGradient-1">
            <stop stop-color="#35BBFF" offset="0%"></stop>
            <stop stop-color="#28A4FF" offset="39.7045546%"></stop>
            <stop stop-color="#5F42F7" offset="100%"></stop>
        </linearGradient>
        <path d="M2.71795816,1.04536852 L11.9601915,4.60007364 C12.6475232,4.864432 13.3776487,5 14.1140659,5 L31.8859341,5 C32.6223513,5 33.3524768,4.864432 34.0398085,4.60007364 L43.2820418,1.04536852 C44.3129869,0.648851181 45.4701739,1.16315649 45.8666912,2.19410158 C45.9548107,2.42321216 46,2.66658734 46,2.91205973 L46,36 C46,41.5228475 41.5228475,46 36,46 L10,46 C4.4771525,46 -1.10000309e-15,41.5228475 0,36 L0,2.91205973 C7.52907669e-16,1.80749024 0.8954305,0.912059735 2,0.912059735 C2.2454724,0.912059735 2.48884758,0.957249068 2.71795816,1.04536852 Z" id="path-2"></path>
        <linearGradient x1="53.49547%" y1="42.3397758%" x2="25.6403544%" y2="75.3759746%" id="linearGradient-4">
            <stop stop-color="#1DE7C4" offset="0%"></stop>
            <stop stop-color="#2EAEFF" stop-opacity="0" offset="100%"></stop>
        </linearGradient>
        <filter x="-109.7%" y="-126.3%" width="319.4%" height="352.6%" filterUnits="objectBoundingBox" id="filter-5">
            <feGaussianBlur stdDeviation="16" in="SourceGraphic"></feGaussianBlur>
        </filter>
    </defs>
    <g id="页面-1" stroke="none" stroke-width="1" fill="none" fill-rule="evenodd">
        <g id="画板" transform="translate(-70.000000, -306.000000)">
            <g id="编组-7" transform="translate(50.000000, 286.000000)">
                <g id="编组-4" transform="translate(20.000000, 20.000000)">
                    <rect id="矩形" x="0" y="0" width="46" height="46"></rect>
                    <g id="编组-2">
                        <g id="编组">
                            <mask id="mask-3" fill="white">
                                <use xlink:href="#path-2"></use>
                            </mask>
                            <use id="矩形" fill="url(#linearGradient-1)" xlink:href="#path-2"></use>
                            <ellipse id="椭圆形" fill="url(#linearGradient-4)" mask="url(#mask-3)" cx="42.1212121" cy="8" rx="21.8787879" ry="19"></ellipse>
                            <ellipse id="椭圆形备份-3" fill="url(#linearGradient-4)" filter="url(#filter-5)" mask="url(#mask-3)" cx="29.1212121" cy="34" rx="21.8787879" ry="19"></ellipse>
                            <rect id="矩形" fill="#074DC3" opacity="0.861110869" mask="url(#mask-3)" x="14" y="30" width="18" height="16"></rect>
                            <path d="M20.236068,26 L25.763932,26 C26.8685015,26 27.763932,26.8954305 27.763932,28 C27.763932,28.3104902 27.6916418,28.6167163 27.5527864,28.8944272 L24.7888544,34.4222912 C24.2948759,35.4102482 23.0935298,35.8106969 22.1055728,35.3167184 C21.718518,35.123191 21.404673,34.809346 21.2111456,34.4222912 L18.4472136,28.8944272 C17.9532351,27.9064702 18.3536838,26.7051241 19.3416408,26.2111456 C19.6193517,26.0722902 19.9255778,26 20.236068,26 Z" id="矩形" fill="#FC9103" mask="url(#mask-3)"></path>
                            <circle id="椭圆形" fill="#FFFFFF" mask="url(#mask-3)" cx="12" cy="22" r="12"></circle>
                            <circle id="椭圆形备份" fill="#FFFFFF" mask="url(#mask-3)" cx="34" cy="22" r="12"></circle>
                            <circle id="椭圆形" fill="#000000" mask="url(#mask-3)" cx="37.5" cy="20.5" r="3.5"></circle>
                            <circle id="椭圆形备份-2" fill="#000000" mask="url(#mask-3)" cx="14.5" cy="20.5" r="3.5"></circle>
                        </g>
                        <path d="M20.236068,26 L25.763932,26 C26.8685015,26 27.763932,26.8954305 27.763932,28 C27.763932,28.3104902 27.6916418,28.6167163 27.5527864,28.8944272 L24.7888544,34.4222912 C24.2948759,35.4102482 23.0935298,35.8106969 22.1055728,35.3167184 C21.718518,35.123191 21.404673,34.809346 21.2111456,34.4222912 L18.4472136,28.8944272 C17.9532351,27.9064702 18.3536838,26.7051241 19.3416408,26.2111456 C19.6193517,26.0722902 19.9255778,26 20.236068,26 Z" id="矩形" fill="#FC9103"></path>
                    </g>
                </g>
            </g>
        </g>
    </g>
</svg>